# xmcd generated by iCDc
#
# Track frame offsets:
#     183
#     31583
#     79558
#     102483
#     122008
#     132783
#     157383
#     194908
#     215008
#     235158
#     250333
#     270858
#     302133
#
# Disc length: 4686 seconds
#
# Revision: 0
# Processed by: cddbd v1.4PL0 Copyright (c) Steve Scherf et al.
# Submitted via: iCDc 2.0 http://homepage.mac.com/andersw/icdc/
#
DISCID=b4124c0d
DTITLE=Eric Clapton - Further On Up The Crossroads - Disc 3
DYEAR=1995
DGENRE=Blues
TTITLE0=I Can't Hold Out Much Longer
TTITLE1=You Don't Love Me
TTITLE2=Little Queenie
TTITLE3=The Sky Is Crying
TTITLE4=Ramblin' On My Mind
TTITLE5=Right now
TTITLE6=Early In The Morning
TTITLE7=There Ain't No Money
TTITLE8=Country Boy
TTITLE9=Thunder And Lightning
TTITLE10=I've Got A Rock'n'Roll Heart
TTITLE11=Ain't Going Down
TTITLE12=Double Trouble
EXTD=
EXTT0=
EXTT1=
EXTT2=
EXTT3=
EXTT4=
EXTT5=
EXTT6=
EXTT7=
EXTT8=
EXTT9=
EXTT10=
EXTT11=
EXTT12=
PLAYORDER=
